#!OML:ASF H:\LiuWeirdWalks\Patient Classification 1\Patient 1\Session 1\male.ASF
:FULLY-SPECIFIED
:DEGREES
1952
root 0.125768 17.6951 -12.9342 185.549 184.061 -173.842
lowerback 7.29057 -10.8697 -9.40073
upperback -0.448299 -15.1698 6.69738
thorax -0.203885 -7.70342 12.9379
lowerneck -18.9646 5.46624 12.4771
upperneck 15.8356 6.31491 -11.4228
head 8.85254 2.57781 -5.13347
rclavicle -1.72148e-013 4.77083e-015
rhumerus -54.5369 -22.1395 -23.8553
rradius 26.4156
rwrist 1.72135
rhand -17.4273 -5.12749
rfingers 7.12502
rthumb 8.82301 -34.923
lclavicle -1.72148e-013 4.77083e-015
lhumerus 4.54988 19.1169 63.146
lradius 47.2958
lwrist 45.9739
lhand -21.1519 -2.89224
lfingers 7.12502
lthumb 5.2277 27.0233
rfemur -37.3593 -1.26344 15.8087
rtibia 32.8413
rfoot 0.348198 -4.78055
rtoes -1.33229
lfemur 20.8521 1.74913 -30.9006
ltibia -6.36111e-015
lfoot 1.59119 13.838
ltoes -23.4152
1953
root 0.115417 17.7378 -12.7706 185.655 184.32 -173.876
lowerback 7.23037 -10.7456 -9.36359
upperback -0.475339 -14.9958 6.72323
thorax -0.251988 -7.61067 12.949
lowerneck -18.9818 5.49171 12.519
upperneck 15.8631 6.36322 -11.5402
head 8.87733 2.59063 -5.17599
rclavicle -1.37161e-013 9.54166e-015
rhumerus -54.7435 -22.8991 -23.5924
rradius 25.9629
rwrist 2.04984
rhand -17.5085 -5.32394
rfingers 7.12502
rthumb 8.74469 -35.1228
lclavicle -1.37161e-013 9.54166e-015
lhumerus 4.27341 18.5308 63.4919
lradius 47.2844
lwrist 45.6941
lhand -21.0019 -3.05732
lfingers 7.12502
lthumb 5.37249 26.8546
rfemur -36.9067 -1.47144 16.024
rtibia 32.9019
rfoot -0.22856 -4.73859
rtoes -0.810289
lfemur 21.0599 1.78959 -30.844
ltibia -2.54444e-014
lfoot 3.27792 13.0205
ltoes -23.7412
1954
root 0.104333 17.7814 -12.6071 185.748 184.498 -173.893
lowerback 7.15158 -10.626 -9.30488
upperback -0.503286 -14.8243 6.72571
thorax -0.302153 -7.51804 12.9188
lowerneck -18.9606 5.50785 12.5544
upperneck 15.8567 6.4033 -11.6619
head 8.88275 2.59997 -5.21973
rclavicle -4.69132e-014 1.90833e-014
rhumerus -54.946 -23.5279 -23.5499
rradius 25.5327
rwrist 2.2631
rhand -17.5763 -5.52784
rfingers 7.12502
rthumb 8.67922 -35.3294
lclavicle -4.69132e-014 1.90833e-014
lhumerus 3.96947 17.8196 63.8614
lradius 47.2252
lwrist 45.3462
lhand -20.8248 -3.13928
lfingers 7.12502
lthumb 5.54347 26.7682
rfemur -36.389 -1.73093 16.1869
rtibia 32.8846
rfoot -0.809059 -4.67576
rtoes -0.738286
lfemur 21.249 1.75356 -30.8057
ltibia 0
lfoot 5.16175 12.1677
ltoes -23.9841
1955
root 0.0925835 17.8248 -12.4433 185.827 184.597 -173.903
lowerback 7.06679 -10.5107 -9.2259
upperback -0.540951 -14.6565 6.71738
thorax -0.366105 -7.42538 12.8656
lowerneck -18.9672 5.5092 12.5764
upperneck 15.9059 6.42866 -11.7881
head 8.90984 2.60015 -5.26612
rclavicle -1.13307e-013 2.8625e-014
rhumerus -55.1402 -24.0235 -23.7019
rradius 25.1391
rwrist 2.38252
rhand -17.6324 -5.73896
rfingers 7.12502
rthumb 8.6251 -35.5428
lclavicle -1.13307e-013 2.8625e-014
lhumerus 3.61823 17.0066 64.275
lradius 47.1231
lwrist 44.8982
lhand -20.6207 -3.17453
lfingers 7.12502
lthumb 5.74059 26.7277
rfemur -35.8062 -2.00652 16.2984
rtibia 32.8021
rfoot -1.38904 -4.60565
rtoes -0.981442
lfemur 17.7926 1.67692 -30.7794
ltibia 7.13666
lfoot 3.89939 12.5631
ltoes -24.1777
1956
root 0.0798225 17.8679 -12.2795 185.908 184.616 -173.944
lowerback 6.94695 -10.3972 -9.08564
upperback -0.576092 -14.4831 6.69922
thorax -0.426866 -7.32983 12.761
lowerneck -18.9526 5.5002 12.6034
upperneck 15.9413 6.44337 -11.9316
head 8.92791 2.59458 -5.32106
rclavicle -1.2921e-013 5.08889e-014
rhumerus -55.3485 -24.4149 -24.0293
rradius 24.7802
rwrist 2.52836
rhand -17.5858 -5.88596
rfingers 7.12502
rthumb 8.67001 -35.6879
lclavicle -1.2921e-013 5.08889e-014
lhumerus 3.25842 16.0707 64.7143
lradius 46.9766
lwrist 44.3396
lhand -20.3863 -3.13304
lfingers 7.12502
lthumb 5.96688 26.7629
rfemur -35.1771 -2.26637 16.4019
rtibia 32.6667
rfoot -1.94909 -4.56536
rtoes -0.997083
lfemur 15.958 1.50899 -30.6882
ltibia 11.0244
lfoot 4.3691 12.3598
ltoes -24.2229
